<svg width="28" height="28" viewBox="0 0 28 28" fill="none" xmlns="http://www.w3.org/2000/svg">
<path d="M6.92468 12.9958C6.92468 12.5177 7.31221 12.1302 7.79025 12.1302H15.5803C16.0584 12.1302 16.4459 12.5177 16.4459 12.9958C16.4459 13.4738 16.0584 13.8613 15.5803 13.8613H7.79025C7.31221 13.8613 6.92468 13.4738 6.92468 12.9958ZM6.92468 17.3236C6.92468 16.8455 7.31221 16.458 7.79025 16.458H17.3115C17.7895 16.458 18.177 16.8455 18.177 17.3236C18.177 17.8016 17.7895 18.1891 17.3115 18.1891H7.79025C7.31221 18.1891 6.92468 17.8016 6.92468 17.3236Z" fill="#333333"/>
<path d="M24.236 3.47629H3.46238C3.00325 3.47629 2.56293 3.65867 2.23828 3.98332C1.91363 4.30797 1.73125 4.7483 1.73125 5.20742V22.5187C1.73125 22.9779 1.91363 23.4182 2.23828 23.7428C2.56293 24.0675 3.00325 24.2499 3.46238 24.2499H24.236C24.6951 24.2499 25.1354 24.0675 25.4601 23.7428C25.7847 23.4182 25.9671 22.9779 25.9671 22.5187V5.20742C25.9671 4.7483 25.7847 4.30797 25.4601 3.98332C25.1354 3.65867 24.6951 3.47629 24.236 3.47629ZM24.236 5.20742V6.93855H3.46238V5.20742H24.236ZM3.46238 22.5187V8.66968H24.236V22.5187H3.46238Z" fill="#333333"/>
</svg>
