<svg width="22" height="19" viewBox="0 0 22 19" fill="none" xmlns="http://www.w3.org/2000/svg">
<path d="M16.059 12.521C16.5268 12.2015 17.0755 12.0211 17.6416 12.0004C18.2076 11.9798 18.768 12.1199 19.2578 12.4044C19.7476 12.689 20.1469 13.1064 20.4093 13.6084C20.6718 14.1104 20.7868 14.6764 20.741 15.241C19.5412 15.6603 18.2668 15.8235 17 15.72C16.9961 14.5866 16.6697 13.4768 16.059 12.522C15.5169 11.6718 14.7691 10.972 13.8848 10.4875C13.0005 10.003 12.0083 9.74932 11 9.75C9.99184 9.74948 8.99983 10.0032 8.11573 10.4877C7.23163 10.9723 6.484 11.6719 5.942 12.522M16.999 15.719L17 15.75C17 15.975 16.988 16.197 16.963 16.416C15.1484 17.4571 13.0921 18.0033 11 18C8.83 18 6.793 17.424 5.037 16.416C5.01129 16.1846 4.99894 15.9519 5 15.719M5 15.719C3.73363 15.8263 2.45991 15.6637 1.261 15.242C1.21535 14.6776 1.33039 14.1117 1.59283 13.6099C1.85526 13.1081 2.25437 12.6908 2.744 12.4063C3.23364 12.1218 3.7938 11.9817 4.35972 12.0021C4.92564 12.0226 5.47421 12.2028 5.942 12.522M5 15.719C5.00359 14.5857 5.33162 13.4769 5.942 12.522M14 3.75C14 4.54565 13.6839 5.30871 13.1213 5.87132C12.5587 6.43393 11.7956 6.75 11 6.75C10.2044 6.75 9.44129 6.43393 8.87868 5.87132C8.31607 5.30871 8 4.54565 8 3.75C8 2.95435 8.31607 2.19129 8.87868 1.62868C9.44129 1.06607 10.2044 0.75 11 0.75C11.7956 0.75 12.5587 1.06607 13.1213 1.62868C13.6839 2.19129 14 2.95435 14 3.75ZM20 6.75C20 7.04547 19.9418 7.33806 19.8287 7.61104C19.7157 7.88402 19.5499 8.13206 19.341 8.34099C19.1321 8.54992 18.884 8.71566 18.611 8.82873C18.3381 8.9418 18.0455 9 17.75 9C17.4545 9 17.1619 8.9418 16.889 8.82873C16.616 8.71566 16.3679 8.54992 16.159 8.34099C15.9501 8.13206 15.7843 7.88402 15.6713 7.61104C15.5582 7.33806 15.5 7.04547 15.5 6.75C15.5 6.15326 15.7371 5.58097 16.159 5.15901C16.581 4.73705 17.1533 4.5 17.75 4.5C18.3467 4.5 18.919 4.73705 19.341 5.15901C19.7629 5.58097 20 6.15326 20 6.75ZM6.5 6.75C6.5 7.04547 6.4418 7.33806 6.32873 7.61104C6.21566 7.88402 6.04992 8.13206 5.84099 8.34099C5.63206 8.54992 5.38402 8.71566 5.11104 8.82873C4.83806 8.9418 4.54547 9 4.25 9C3.95453 9 3.66195 8.9418 3.38896 8.82873C3.11598 8.71566 2.86794 8.54992 2.65901 8.34099C2.45008 8.13206 2.28434 7.88402 2.17127 7.61104C2.0582 7.33806 2 7.04547 2 6.75C2 6.15326 2.23705 5.58097 2.65901 5.15901C3.08097 4.73705 3.65326 4.5 4.25 4.5C4.84674 4.5 5.41903 4.73705 5.84099 5.15901C6.26295 5.58097 6.5 6.15326 6.5 6.75Z" stroke="#333333" stroke-width="1.5" stroke-linecap="round" stroke-linejoin="round"/>
</svg>
