<svg width="24" height="24" viewBox="0 0 24 24" fill="none" xmlns="http://www.w3.org/2000/svg">
<g id="dashicons:admin-site-alt3" clip-path="url(#clip0_2243_19522)">
<path id="Vector" d="M22.0556 3C22.7039 3 23.3256 3.25754 23.784 3.71596C24.2425 4.17438 24.5 4.79614 24.5 5.44444V22.5556C24.5 23.2039 24.2425 23.8256 23.784 24.284C23.3256 24.7425 22.7039 25 22.0556 25H4.94444C4.29614 25 3.67438 24.7425 3.21596 24.284C2.75754 23.8256 2.5 23.2039 2.5 22.5556V5.44444C2.5 4.79614 2.75754 4.17438 3.21596 3.71596C3.67438 3.25754 4.29614 3 4.94444 3H22.0556ZM21.4444 21.9444V15.4667C21.4444 14.4099 21.0247 13.3965 20.2774 12.6492C19.5302 11.902 18.5167 11.4822 17.46 11.4822C16.4211 11.4822 15.2111 12.1178 14.6244 13.0711V11.7144H11.2144V21.9444H14.6244V15.9189C14.6244 14.9778 15.3822 14.2078 16.3233 14.2078C16.7771 14.2078 17.2124 14.3881 17.5333 14.709C17.8542 15.0298 18.0344 15.4651 18.0344 15.9189V21.9444H21.4444ZM7.24222 9.79556C7.7868 9.79556 8.30907 9.57922 8.69415 9.19415C9.07922 8.80907 9.29556 8.2868 9.29556 7.74222C9.29556 6.60556 8.37889 5.67667 7.24222 5.67667C6.6944 5.67667 6.16902 5.89429 5.78165 6.28165C5.39429 6.66902 5.17667 7.1944 5.17667 7.74222C5.17667 8.87889 6.10556 9.79556 7.24222 9.79556ZM8.94111 21.9444V11.7144H5.55556V21.9444H8.94111Z" fill="#808080"/>
</g>
<defs>
<clipPath id="clip0_2243_19522">
<rect width="24" height="24" fill="white"/>
</clipPath>
</defs>
</svg>
