<svg width="40" height="40" viewBox="0 0 40 40" fill="none" xmlns="http://www.w3.org/2000/svg">
<g id="Icon Left">
<path id="Vector" d="M17.9833 27.15C18.6333 27.8 19.6833 27.8 20.3333 27.15L26.3167 21.1667C26.9667 20.5167 26.9667 19.4667 26.3167 18.8167L20.3333 12.8333C19.6833 12.1833 18.6333 12.1833 17.9833 12.8333C17.3333 13.4833 17.3333 14.5333 17.9833 15.1833L21.1167 18.3333H6.66667C5.75 18.3333 5 19.0833 5 20C5 20.9167 5.75 21.6667 6.66667 21.6667H21.1167L17.9833 24.8C17.3333 25.45 17.35 26.5167 17.9833 27.15ZM31.6667 5H8.33333C6.48333 5 5 6.5 5 8.33333V13.3333C5 14.25 5.75 15 6.66667 15C7.58333 15 8.33333 14.25 8.33333 13.3333V10C8.33333 9.08333 9.08333 8.33333 10 8.33333H30C30.9167 8.33333 31.6667 9.08333 31.6667 10V30C31.6667 30.9167 30.9167 31.6667 30 31.6667H10C9.08333 31.6667 8.33333 30.9167 8.33333 30V26.6667C8.33333 25.75 7.58333 25 6.66667 25C5.75 25 5 25.75 5 26.6667V31.6667C5 33.5 6.5 35 8.33333 35H31.6667C33.5 35 35 33.5 35 31.6667V8.33333C35 6.5 33.5 5 31.6667 5Z" fill="black"/>
</g>
</svg>
