<svg width="36" height="37" viewBox="0 0 36 37" fill="none" xmlns="http://www.w3.org/2000/svg">
<path d="M3 8.57617C1.34375 8.57617 0 9.91992 0 11.5762C0 12.5199 0.44375 13.4074 1.2 13.9762L14.8 24.1762C15.5125 24.7074 16.4875 24.7074 17.2 24.1762L30.8 13.9762C31.5562 13.4074 32 12.5199 32 11.5762C32 9.91992 30.6562 8.57617 29 8.57617H3ZM0 15.5762V28.5762C0 30.7824 1.79375 32.5762 4 32.5762H28C30.2062 32.5762 32 30.7824 32 28.5762V15.5762L18.4 25.7762C16.975 26.8449 15.025 26.8449 13.6 25.7762L0 15.5762Z" fill="black"/>
<rect x="16" y="0.576172" width="20" height="20" rx="10" fill="#C92B2B"/>
<path d="M27.0315 5.99805V14.5762H25.9475V7.35156L23.762 8.14844V7.16992L26.8616 5.99805H27.0315Z" fill="white"/>
</svg>
