<svg width="22" height="22" viewBox="0 0 22 22" fill="none" xmlns="http://www.w3.org/2000/svg">
<path d="M20.35 21.45C20.6538 21.7538 21.1462 21.7538 21.45 21.45C21.7538 21.1462 21.7538 20.6538 21.45 20.35L16.0286 14.9286H20.4286C20.8625 14.9286 21.2143 14.5768 21.2143 14.1429C21.2143 13.7089 20.8625 13.3571 20.4286 13.3571H14.6667C13.9434 13.3571 13.3571 13.9434 13.3571 14.6667V20.4286C13.3571 20.8625 13.7089 21.2143 14.1429 21.2143C14.5768 21.2143 14.9286 20.8625 14.9286 20.4286V16.0286L20.35 21.45ZM0.55 20.35C0.246243 20.6538 0.246244 21.1462 0.55 21.45C0.853757 21.7538 1.34624 21.7538 1.65 21.45L7.07143 16.0286V20.4286C7.07143 20.8625 7.42321 21.2143 7.85714 21.2143C8.29108 21.2143 8.64286 20.8625 8.64286 20.4286V14.6667C8.64286 13.9434 8.05656 13.3571 7.33333 13.3571H1.57143C1.13749 13.3571 0.785714 13.7089 0.785714 14.1429C0.785714 14.5768 1.13749 14.9286 1.57143 14.9286H5.97143L0.55 20.35ZM11.7857 0.785715C11.7857 0.351777 11.4339 0 11 0C10.5661 0 10.2143 0.351776 10.2143 0.785715V8.01429L7.15 4.95C6.84624 4.64624 6.35376 4.64624 6.05 4.95C5.74624 5.25376 5.74624 5.74624 6.05 6.05L10.0833 10.0833C10.5896 10.5896 11.4104 10.5896 11.9167 10.0833L15.95 6.05C16.2538 5.74624 16.2538 5.25376 15.95 4.95C15.6462 4.64624 15.1538 4.64624 14.85 4.95L11.7857 8.01429V0.785715Z" fill="#333333"/>
</svg>
