<svg width="234" height="32" viewBox="0 0 234 32" fill="none" xmlns="http://www.w3.org/2000/svg">
<path d="M1.8457 31.1391C1.8457 31.0844 1.8457 30.975 1.8457 30.811C1.8457 30.6196 1.83203 30.4282 1.80469 30.2368C1.80469 30.0453 1.80469 29.8676 1.80469 29.7036C1.80469 29.5121 1.80469 29.3754 1.80469 29.2934C1.80469 28.0629 1.88672 26.8598 2.05078 25.684C2.24219 24.4809 2.43359 23.2914 2.625 22.1157C2.84375 20.9125 3.03516 19.7231 3.19922 18.5473C3.39062 17.3442 3.48633 16.1274 3.48633 14.8969C3.48633 14.7875 3.48633 14.5688 3.48633 14.2407C3.48633 13.9125 3.48633 13.5707 3.48633 13.2153C3.48633 12.8325 3.47266 12.477 3.44531 12.1489C3.44531 11.8207 3.44531 11.5883 3.44531 11.4516C3.28125 11.1782 3.03516 10.9868 2.70703 10.8774C2.40625 10.768 2.10547 10.6586 1.80469 10.5493C1.50391 10.4399 1.23047 10.3032 0.984375 10.1391C0.765625 9.97504 0.65625 9.71527 0.65625 9.3598C0.65625 9.11371 0.724609 8.9223 0.861328 8.78558C0.998047 8.62152 1.16211 8.49847 1.35352 8.41644C1.57227 8.33441 1.79102 8.2934 2.00977 8.2934C2.25586 8.26605 2.48828 8.25238 2.70703 8.25238C4.01953 8.25238 5.00391 8.67621 5.66016 9.52386C6.31641 10.3715 6.64453 11.4516 6.64453 12.7641C6.64453 13.9946 6.53516 15.2114 6.31641 16.4145C6.09766 17.5903 5.85156 18.7661 5.57812 19.9418C5.30469 21.1176 5.05859 22.3071 4.83984 23.5102C4.62109 24.686 4.51172 25.8891 4.51172 27.1196V27.4477C4.62109 27.3383 4.79883 27.1606 5.04492 26.9145C5.31836 26.6684 5.5918 26.4086 5.86523 26.1352C6.16602 25.8344 6.43945 25.561 6.68555 25.3149C6.93164 25.0414 7.0957 24.85 7.17773 24.7407C8.68164 22.936 10.0352 21.0493 11.2383 19.0805C12.4414 17.0844 13.5488 15.1703 14.5605 13.3383C15.5723 11.5063 16.5156 9.81097 17.3906 8.25238C18.2656 6.66644 19.1406 5.35394 20.0156 4.31488C20.8906 3.27582 21.793 2.59222 22.7227 2.2641C23.6523 1.90863 24.6777 2.04535 25.7988 2.67426C25.7988 3.00238 25.6758 3.24847 25.4297 3.41254C25.2109 3.54926 24.9512 3.65863 24.6504 3.74066C24.3496 3.82269 24.0488 3.9184 23.748 4.02777C23.4473 4.1098 23.2285 4.27386 23.0918 4.51996C20.4941 9.1684 17.6914 13.7621 14.6836 18.3012C11.7031 22.8129 8.49023 27.0922 5.04492 31.1391C4.74414 31.3852 4.48438 31.5493 4.26562 31.6313C4.04688 31.686 3.77344 31.7133 3.44531 31.7133C3.11719 31.7133 2.84375 31.686 2.625 31.6313C2.40625 31.5493 2.14648 31.3852 1.8457 31.1391ZM15.5039 29.0063C15.5039 28.6235 15.5449 28.2953 15.627 28.0219C15.709 27.7211 15.8594 27.3383 16.0781 26.8735C16.2695 26.6 16.6113 26.0805 17.1035 25.3149C17.623 24.5493 18.1562 23.7426 18.7031 22.895C19.2773 22.0473 19.8105 21.2543 20.3027 20.5161C20.8223 19.7504 21.1777 19.2172 21.3691 18.9164C21.6152 18.561 21.8066 18.3696 21.9434 18.3422C22.0801 18.3149 22.3398 18.3012 22.7227 18.3012C22.9688 18.3012 23.2285 18.3149 23.502 18.3422C23.8027 18.3696 23.9941 18.561 24.0762 18.9164C23.6934 19.8461 23.1738 20.7348 22.5176 21.5825C21.8887 22.4028 21.2598 23.2231 20.6309 24.0434C20.0293 24.8637 19.4961 25.7114 19.0312 26.5864C18.5664 27.434 18.334 28.35 18.334 29.3344C18.4434 29.3344 18.6074 29.3481 18.8262 29.3754C19.0723 29.4028 19.332 29.4301 19.6055 29.4575C19.8789 29.4848 20.125 29.5121 20.3438 29.5395C20.5898 29.5668 20.7676 29.5668 20.877 29.5395C21.041 29.5121 21.3145 29.4575 21.6973 29.3754C22.1074 29.2661 22.5312 29.1567 22.9688 29.0473C23.4336 28.9379 23.8711 28.8286 24.2812 28.7192C24.6914 28.6098 24.9785 28.5278 25.1426 28.4731C25.1426 28.5278 25.1426 28.6235 25.1426 28.7602C25.1699 28.8696 25.1836 28.9516 25.1836 29.0063C25.1836 29.5532 24.9238 30.0043 24.4043 30.3598C23.9121 30.7153 23.3242 31.0024 22.6406 31.2211C21.9844 31.4125 21.3008 31.5493 20.5898 31.6313C19.9062 31.686 19.373 31.7133 18.9902 31.7133C18.5801 31.7133 18.1562 31.6723 17.7188 31.5903C17.3086 31.4809 16.9395 31.3168 16.6113 31.0981C16.2832 30.8793 16.0098 30.6059 15.791 30.2778C15.5996 29.9223 15.5039 29.4985 15.5039 29.0063ZM27.4395 4.97113C27.7949 4.97113 28.123 4.9848 28.4238 5.01215C28.7246 5.03949 28.9844 5.10785 29.2031 5.21722C29.4219 5.3266 29.5996 5.49066 29.7363 5.70941C29.873 5.92816 29.9414 6.22894 29.9414 6.61176C29.9414 6.77582 29.9414 6.95355 29.9414 7.14496C29.9414 7.33636 29.9141 7.52777 29.8594 7.71918C29.832 7.88324 29.7637 8.03363 29.6543 8.17035C29.5449 8.27972 29.3672 8.33441 29.1211 8.33441C28.7383 8.33441 28.4238 8.19769 28.1777 7.92426C27.959 7.65082 27.7949 7.33636 27.6855 6.9809C27.5762 6.59808 27.5078 6.21527 27.4805 5.83246C27.4531 5.44965 27.4395 5.16254 27.4395 4.97113ZM25.7578 28.227C25.7578 28.1176 25.7578 27.8989 25.7578 27.5707C25.7852 27.2153 25.7988 26.9828 25.7988 26.8735C26.6738 24.8774 27.7949 23.0317 29.1621 21.3364C30.5293 19.6411 32.0742 18.1371 33.7969 16.8246C33.8516 16.8246 33.9336 16.811 34.043 16.7836C34.1797 16.7289 34.2754 16.7016 34.3301 16.7016C35.0684 16.7016 35.6699 16.8657 36.1348 17.1938C36.627 17.4946 37.0098 17.9047 37.2832 18.4243C37.584 18.9164 37.7891 19.477 37.8984 20.1059C38.0078 20.7075 38.0625 21.2953 38.0625 21.8696C38.0625 22.936 37.8164 24.0571 37.3242 25.2328C36.832 26.3813 36.1621 27.4477 35.3145 28.4321C34.4941 29.3891 33.5508 30.1821 32.4844 30.811C31.418 31.4125 30.3105 31.7133 29.1621 31.7133C28.0137 31.7133 27.1523 31.4125 26.5781 30.811C26.0312 30.1821 25.7578 29.3207 25.7578 28.227ZM28.957 27.7348C28.957 28.0356 29.0801 28.2407 29.3262 28.35C29.5723 28.4594 29.8184 28.5141 30.0645 28.5141C30.748 28.5141 31.4043 28.3364 32.0332 27.9809C32.6895 27.5981 33.2637 27.1332 33.7559 26.5864C34.2754 26.0121 34.6855 25.3832 34.9863 24.6996C35.2871 24.0161 35.4375 23.3598 35.4375 22.7309C35.4375 22.4301 35.4102 22.102 35.3555 21.7465C35.3281 21.3637 35.2461 21.0356 35.1094 20.7621C34.9727 20.4614 34.7539 20.2289 34.4531 20.0649C34.1797 19.9008 33.7832 19.8735 33.2637 19.9828C32.8809 20.0649 32.4434 20.4203 31.9512 21.0493C31.459 21.6782 30.9805 22.4164 30.5156 23.2641C30.0781 24.0844 29.709 24.9184 29.4082 25.7661C29.1074 26.5864 28.957 27.2426 28.957 27.7348ZM39.334 27.9399C39.334 27.7485 39.3477 27.4614 39.375 27.0786C39.4297 26.6684 39.4844 26.2719 39.5391 25.8891C39.5938 25.5063 39.6484 25.1645 39.7031 24.8637C39.7578 24.5356 39.8125 24.3305 39.8672 24.2485L47.332 9.31879C47.4414 9.10004 47.6465 8.79926 47.9473 8.41644C48.2754 8.00629 48.6172 7.59613 48.9727 7.18597C49.3555 6.74847 49.7246 6.35199 50.0801 5.99652C50.4629 5.61371 50.7773 5.31293 51.0234 5.09418C51.2148 5.14886 51.3516 5.24457 51.4336 5.38129C51.5156 5.51801 51.5703 5.68207 51.5977 5.87347C51.625 6.03754 51.625 6.2016 51.5977 6.36566C51.5977 6.52972 51.5977 6.66644 51.5977 6.77582C51.5977 6.91254 51.5977 7.10394 51.5977 7.35004C51.5977 7.59613 51.584 7.71918 51.5566 7.71918C51.2832 8.45746 50.8594 9.33246 50.2852 10.3442C49.7109 11.3559 49.0684 12.436 48.3574 13.5844C47.6465 14.7328 46.9082 15.936 46.1426 17.1938C45.4043 18.4243 44.7207 19.6547 44.0918 20.8852C43.4902 22.0883 42.9844 23.2504 42.5742 24.3715C42.1914 25.4926 42 26.518 42 27.4477C42 27.9399 42.1367 28.3364 42.4102 28.6371C42.7109 28.9106 43.0254 29.1567 43.3535 29.3754C43.6816 29.5942 43.9824 29.8129 44.2559 30.0317C44.5566 30.2504 44.707 30.5512 44.707 30.934C44.707 31.1801 44.5977 31.3715 44.3789 31.5082C44.1602 31.6176 43.9004 31.6723 43.5996 31.6723C42.4512 31.6723 41.4531 31.3578 40.6055 30.7289C39.7578 30.0727 39.334 29.143 39.334 27.9399ZM50.2031 29.5395C49.7383 28.5004 49.5332 27.4887 49.5879 26.5043C49.6426 25.4926 49.8613 24.5493 50.2441 23.6743C50.6543 22.7719 51.1738 21.9653 51.8027 21.2543C52.459 20.5161 53.1562 19.8871 53.8945 19.3676C54.6328 18.8207 55.3711 18.4106 56.1094 18.1371C56.875 17.8637 57.5449 17.7543 58.1191 17.809C58.6934 17.8364 59.1445 18.0414 59.4727 18.4243C59.8008 18.8071 59.9102 19.395 59.8008 20.1879C59.8008 21.2543 59.459 22.184 58.7754 22.977C58.1191 23.77 57.3809 24.4809 56.5605 25.1098C55.7676 25.7387 55.0293 26.3129 54.3457 26.8325C53.6895 27.3246 53.3613 27.7895 53.3613 28.227C53.3613 28.4731 53.498 28.6645 53.7715 28.8012C54.0723 28.9379 54.4141 29.0473 54.7969 29.1293C55.1797 29.184 55.5625 29.225 55.9453 29.2524C56.3281 29.2797 56.6016 29.3071 56.7656 29.3344C59.3359 28.7875 61.2637 28.4594 62.5488 28.35C63.834 28.2133 64.6406 28.227 64.9688 28.3911C65.2969 28.5278 65.2285 28.7602 64.7637 29.0883C64.3262 29.3891 63.6426 29.7172 62.7129 30.0727C61.7832 30.4008 60.7031 30.7016 59.4727 30.975C58.2422 31.2485 57.0254 31.4125 55.8223 31.4672C54.6191 31.4946 53.498 31.3715 52.459 31.0981C51.4473 30.8246 50.6953 30.3051 50.2031 29.5395ZM57.3809 20.1879C56.834 20.1879 56.3145 20.3383 55.8223 20.6391C55.3301 20.9399 54.8789 21.3227 54.4688 21.7875C54.0859 22.225 53.7578 22.7172 53.4844 23.2641C53.2109 23.7836 53.0059 24.2758 52.8691 24.7407C52.9238 24.768 52.9648 24.7817 52.9922 24.7817H53.1152C53.498 24.7817 53.9355 24.6176 54.4277 24.2895C54.9199 23.9614 55.3848 23.5649 55.8223 23.1C56.2598 22.6078 56.6289 22.102 56.9297 21.5825C57.2305 21.0629 57.3809 20.5981 57.3809 20.1879ZM63.8613 27.6938C63.8613 26.9008 64.0117 26.1078 64.3125 25.3149C64.6133 24.5219 64.9688 23.7426 65.3789 22.977C65.7891 22.184 66.1992 21.4047 66.6094 20.6391C67.0469 19.8735 67.375 19.1215 67.5938 18.3832C67.0742 18.684 66.623 18.8618 66.2402 18.9164C65.8848 18.9438 65.4473 18.9575 64.9277 18.9575C64.873 18.9575 64.6953 18.9575 64.3945 18.9575C64.1211 18.9301 63.9434 18.9164 63.8613 18.9164C64.0254 18.3149 64.3262 17.7817 64.7637 17.3168C65.2012 16.8246 65.6934 16.4145 66.2402 16.0864C66.8145 15.7309 67.4023 15.4438 68.0039 15.225C68.6328 14.9789 69.1934 14.7875 69.6855 14.6508C70.5059 13.3657 71.1758 12.0805 71.6953 10.7953C72.2148 9.48285 72.7344 8.21136 73.2539 6.9809C73.8008 5.72308 74.4297 4.53363 75.1406 3.41254C75.8789 2.2641 76.8633 1.21136 78.0938 0.254333L78.2988 1.81293L73.1719 13.8305C73.4727 13.7485 73.8418 13.6664 74.2793 13.5844C74.7168 13.5024 75.1543 13.4203 75.5918 13.3383C76.0566 13.2563 76.4941 13.1879 76.9043 13.1332C77.3418 13.0512 77.7109 12.9692 78.0117 12.8871C78.0391 12.8871 78.1211 12.8871 78.2578 12.8871C78.3945 12.8598 78.5039 12.8461 78.5859 12.8461C78.9688 12.8461 79.2832 12.9145 79.5293 13.0512C79.7754 13.1879 79.9805 13.4887 80.1445 13.9536C78.2852 14.5004 76.6035 15.0746 75.0996 15.6762C73.5957 16.2778 72.2832 17.0707 71.1621 18.0551C70.0684 19.0121 69.166 20.2426 68.4551 21.7465C67.7715 23.2231 67.293 25.1235 67.0195 27.4477C67.0195 27.9399 67.0469 28.3911 67.1016 28.8012C67.1562 29.2114 67.498 29.4575 68.127 29.5395C68.7559 29.5395 69.3438 29.4164 69.8906 29.1703C70.4375 28.9243 70.9707 28.6645 71.4902 28.3911C72.0098 28.0903 72.5293 27.8168 73.0488 27.5707C73.5957 27.3246 74.1836 27.2016 74.8125 27.2016C74.8125 27.8578 74.5254 28.4594 73.9512 29.0063C73.377 29.5532 72.6797 30.0317 71.8594 30.4418C71.0664 30.852 70.2461 31.1664 69.3984 31.3852C68.5508 31.6039 67.8535 31.7133 67.3066 31.7133C66.7598 31.7133 66.2676 31.6039 65.8301 31.3852C65.3926 31.1664 65.0234 30.8793 64.7227 30.5239C64.4492 30.1411 64.2305 29.7036 64.0664 29.2114C63.9297 28.7192 63.8613 28.2133 63.8613 27.6938ZM75.1816 29.0063C75.4277 27.4477 75.8926 26.0121 76.5762 24.6996C77.2598 23.3871 78.0391 22.2524 78.9141 21.2953C79.8164 20.311 80.7871 19.5043 81.8262 18.8754C82.8652 18.2465 83.877 17.85 84.8613 17.686C85.8457 17.4946 86.748 17.5356 87.5684 17.809C88.416 18.0825 89.0996 18.6293 89.6191 19.4496C89.6191 20.0786 89.4688 20.6801 89.168 21.2543C88.8945 21.8286 88.5801 22.4028 88.2246 22.977C87.8965 23.5512 87.582 24.1391 87.2812 24.7407C87.0078 25.3422 86.8711 25.9848 86.8711 26.6684C86.8711 27.3793 87.0215 27.9536 87.3223 28.3911C87.6504 28.8012 88.2109 29.0063 89.0039 29.0063C89.6602 29.0063 90.2891 28.9106 90.8906 28.7192C91.5195 28.5278 92.1484 28.4321 92.7773 28.4321C92.8867 28.4321 93.0645 28.4457 93.3105 28.4731C93.584 28.4731 93.7617 28.4731 93.8438 28.4731C93.5156 28.9379 93.0918 29.3344 92.5723 29.6625C92.0527 29.9907 91.5059 30.2778 90.9316 30.5239C90.3574 30.7426 89.7559 30.9067 89.127 31.0161C88.5254 31.1254 87.9648 31.1801 87.4453 31.1801C86.9531 31.1801 86.5156 31.0707 86.1328 30.852C85.75 30.6332 85.4219 30.3461 85.1484 29.9907C84.875 29.6352 84.6562 29.2387 84.4922 28.8012C84.3555 28.3364 84.2871 27.8852 84.2871 27.4477C83.877 27.9125 83.4258 28.4047 82.9336 28.9243C82.4688 29.4164 81.9629 29.8676 81.416 30.2778C80.8965 30.6879 80.3223 31.0297 79.6934 31.3032C79.0918 31.5766 78.4629 31.7133 77.8066 31.7133C77.0957 31.7133 76.4805 31.4536 75.9609 30.934C75.4414 30.3871 75.1816 29.7446 75.1816 29.0063ZM77.8887 27.7348C77.8887 27.9536 77.8887 28.1996 77.8887 28.4731C77.916 28.7465 78.0938 28.9243 78.4219 29.0063C79.1055 28.8422 79.8848 28.4868 80.7598 27.9399C81.6348 27.3657 82.4551 26.7094 83.2207 25.9711C83.9863 25.2055 84.6289 24.3989 85.1484 23.5512C85.668 22.6762 85.9277 21.8422 85.9277 21.0493C85.9277 20.9946 85.9141 20.9125 85.8867 20.8032C85.8867 20.6664 85.8867 20.5707 85.8867 20.5161C84.957 20.5161 84.0137 20.7075 83.0566 21.0903C82.0996 21.4731 81.2383 22.0063 80.4727 22.6899C79.707 23.3461 79.0781 24.1118 78.5859 24.9868C78.1211 25.8618 77.8887 26.7778 77.8887 27.7348ZM118.658 30.6469C118.658 30.018 118.795 29.3618 119.068 28.6782C119.342 27.9672 119.588 27.3657 119.807 26.8735C119.998 26.4907 120.299 25.9028 120.709 25.1098C121.119 24.2895 121.584 23.3735 122.104 22.3618C122.623 21.35 123.17 20.2836 123.744 19.1625C124.346 18.0414 124.906 16.975 125.426 15.9633C125.945 14.9516 126.41 14.0493 126.82 13.2563C127.258 12.436 127.572 11.8344 127.764 11.4516C127.791 11.4243 127.846 11.3286 127.928 11.1645C128.037 11.0004 128.146 10.8364 128.256 10.6723C128.393 10.5082 128.516 10.3578 128.625 10.2211C128.734 10.0571 128.803 9.94769 128.83 9.89301C128.857 9.83832 128.844 9.78363 128.789 9.72894C128.734 9.67426 128.707 9.61957 128.707 9.56488C127.531 9.7016 126.301 9.87933 125.016 10.0981C123.758 10.3168 122.5 10.5766 121.242 10.8774C120.012 11.1508 118.822 11.4789 117.674 11.8618C116.525 12.2172 115.486 12.6274 114.557 13.0922C114.256 13.0922 113.982 13.0375 113.736 12.9282C113.49 12.8188 113.367 12.6 113.367 12.2719V12.1489C113.367 12.1215 113.381 12.0805 113.408 12.0258C113.463 11.8891 113.545 11.684 113.654 11.4106C113.791 11.1098 113.887 10.9457 113.941 10.9184L117.674 9.31879L142.652 2.96136C142.953 3.72699 142.926 4.34222 142.57 4.80707C142.242 5.24457 141.709 5.61371 140.971 5.91449C140.232 6.18793 139.371 6.43402 138.387 6.65277C137.43 6.84418 136.459 7.09027 135.475 7.39105C134.518 7.66449 133.629 8.0473 132.809 8.53949C131.988 9.00433 131.373 9.63324 130.963 10.4262C129.186 13.9536 127.354 17.4672 125.467 20.9672C123.607 24.4672 121.898 28.0356 120.34 31.6723C120.312 31.6723 120.258 31.6723 120.176 31.6723C120.121 31.6996 120.08 31.7133 120.053 31.7133C119.697 31.7133 119.369 31.6313 119.068 31.4672C118.795 31.3032 118.658 31.0297 118.658 30.6469ZM134.244 29.5395C133.779 28.5004 133.574 27.4887 133.629 26.5043C133.684 25.4926 133.902 24.5493 134.285 23.6743C134.695 22.7719 135.215 21.9653 135.844 21.2543C136.5 20.5161 137.197 19.8871 137.936 19.3676C138.674 18.8207 139.412 18.4106 140.15 18.1371C140.916 17.8637 141.586 17.7543 142.16 17.809C142.734 17.8364 143.186 18.0414 143.514 18.4243C143.842 18.8071 143.951 19.395 143.842 20.1879C143.842 21.2543 143.5 22.184 142.816 22.977C142.16 23.77 141.422 24.4809 140.602 25.1098C139.809 25.7387 139.07 26.3129 138.387 26.8325C137.73 27.3246 137.402 27.7895 137.402 28.227C137.402 28.4731 137.539 28.6645 137.812 28.8012C138.113 28.9379 138.455 29.0473 138.838 29.1293C139.221 29.184 139.604 29.225 139.986 29.2524C140.369 29.2797 140.643 29.3071 140.807 29.3344C143.377 28.7875 145.305 28.4594 146.59 28.35C147.875 28.2133 148.682 28.227 149.01 28.3911C149.338 28.5278 149.27 28.7602 148.805 29.0883C148.367 29.3891 147.684 29.7172 146.754 30.0727C145.824 30.4008 144.744 30.7016 143.514 30.975C142.283 31.2485 141.066 31.4125 139.863 31.4672C138.66 31.4946 137.539 31.3715 136.5 31.0981C135.488 30.8246 134.736 30.3051 134.244 29.5395ZM141.422 20.1879C140.875 20.1879 140.355 20.3383 139.863 20.6391C139.371 20.9399 138.92 21.3227 138.51 21.7875C138.127 22.225 137.799 22.7172 137.525 23.2641C137.252 23.7836 137.047 24.2758 136.91 24.7407C136.965 24.768 137.006 24.7817 137.033 24.7817H137.156C137.539 24.7817 137.977 24.6176 138.469 24.2895C138.961 23.9614 139.426 23.5649 139.863 23.1C140.301 22.6078 140.67 22.102 140.971 21.5825C141.271 21.0629 141.422 20.5981 141.422 20.1879ZM148.395 28.227C148.395 28.1176 148.395 27.8989 148.395 27.5707C148.422 27.2153 148.436 26.9828 148.436 26.8735C149.311 24.8774 150.432 23.0317 151.799 21.3364C153.166 19.6411 154.711 18.1371 156.434 16.8246C156.488 16.8246 156.57 16.811 156.68 16.7836C156.816 16.7289 156.912 16.7016 156.967 16.7016C157.705 16.7016 158.307 16.8657 158.771 17.1938C159.264 17.4946 159.646 17.9047 159.92 18.4243C160.221 18.9164 160.426 19.477 160.535 20.1059C160.645 20.7075 160.699 21.2953 160.699 21.8696C160.699 22.936 160.453 24.0571 159.961 25.2328C159.469 26.3813 158.799 27.4477 157.951 28.4321C157.131 29.3891 156.188 30.1821 155.121 30.811C154.055 31.4125 152.947 31.7133 151.799 31.7133C150.65 31.7133 149.789 31.4125 149.215 30.811C148.668 30.1821 148.395 29.3207 148.395 28.227ZM151.594 27.7348C151.594 28.0356 151.717 28.2407 151.963 28.35C152.209 28.4594 152.455 28.5141 152.701 28.5141C153.385 28.5141 154.041 28.3364 154.67 27.9809C155.326 27.5981 155.9 27.1332 156.393 26.5864C156.912 26.0121 157.322 25.3832 157.623 24.6996C157.924 24.0161 158.074 23.3598 158.074 22.7309C158.074 22.4301 158.047 22.102 157.992 21.7465C157.965 21.3637 157.883 21.0356 157.746 20.7621C157.609 20.4614 157.391 20.2289 157.09 20.0649C156.816 19.9008 156.42 19.8735 155.9 19.9828C155.518 20.0649 155.08 20.4203 154.588 21.0493C154.096 21.6782 153.617 22.4164 153.152 23.2641C152.715 24.0844 152.346 24.9184 152.045 25.7661C151.744 26.5864 151.594 27.2426 151.594 27.7348ZM162.217 27.6118C162.217 26.2446 162.6 24.9047 163.365 23.5922C164.158 22.2797 165.156 21.1176 166.359 20.1059C167.562 19.0942 168.889 18.2875 170.338 17.686C171.787 17.0571 173.168 16.7426 174.48 16.7426C175 16.7426 175.492 16.8383 175.957 17.0297C176.422 17.2211 176.914 17.3168 177.434 17.3168H177.68C177.816 17.0161 178.076 16.4828 178.459 15.7172C178.869 14.9516 179.293 14.145 179.73 13.2973C180.195 12.4496 180.633 11.6567 181.043 10.9184C181.453 10.1528 181.754 9.61957 181.945 9.31879C182.246 8.79926 182.656 8.15668 183.176 7.39105C183.695 6.59808 184.201 5.83246 184.693 5.09418C185.213 4.3559 185.664 3.72699 186.047 3.20746C186.43 2.68793 186.648 2.42816 186.703 2.42816L188.303 4.02777C188.303 4.08246 188.193 4.32855 187.975 4.76605C187.783 5.20355 187.523 5.77777 187.195 6.48871C186.867 7.1723 186.484 7.93793 186.047 8.78558C185.637 9.63324 185.213 10.4809 184.775 11.3286C184.338 12.1762 183.914 12.9965 183.504 13.7895C183.121 14.5551 182.779 15.1977 182.479 15.7172C181.631 17.0024 180.77 18.3149 179.895 19.6547C179.047 20.9672 178.363 22.1977 177.844 23.3461C177.352 24.4672 177.105 25.4516 177.105 26.2993C177.133 27.1469 177.598 27.7348 178.5 28.0629C180.141 27.7621 181.371 27.6391 182.191 27.6938C183.012 27.7485 183.518 27.8989 183.709 28.145C183.928 28.3637 183.9 28.6371 183.627 28.9653C183.354 29.2661 182.916 29.5395 182.314 29.7856C181.74 30.0317 181.07 30.1957 180.305 30.2778C179.539 30.3598 178.773 30.2778 178.008 30.0317C177.242 29.7856 176.545 29.3344 175.916 28.6782C175.287 28.0219 174.809 27.0786 174.48 25.8481L168.123 31.1391C168.123 31.1391 168.014 31.1664 167.795 31.2211C167.604 31.2758 167.357 31.3305 167.057 31.3852C166.783 31.4399 166.496 31.4946 166.195 31.5493C165.895 31.6039 165.648 31.645 165.457 31.6723H165.211C164.582 31.6723 164.062 31.5629 163.652 31.3442C163.27 31.0981 162.969 30.7973 162.75 30.4418C162.531 30.059 162.381 29.6215 162.299 29.1293C162.244 28.6371 162.217 28.1313 162.217 27.6118ZM164.883 27.1606C164.883 27.3246 164.869 27.5161 164.842 27.7348C164.842 27.9536 164.855 28.1586 164.883 28.35C164.938 28.5141 165.02 28.6645 165.129 28.8012C165.266 28.9379 165.457 29.0063 165.703 29.0063C166.059 29.0063 166.482 28.8832 166.975 28.6371C167.494 28.3637 168 28.0493 168.492 27.6938C168.984 27.3383 169.436 26.9828 169.846 26.6274C170.283 26.2719 170.598 26.0121 170.789 25.8481C170.98 25.6567 171.336 25.3149 171.855 24.8227C172.375 24.3032 172.908 23.7563 173.455 23.1821C174.029 22.6078 174.562 22.0746 175.055 21.5825C175.547 21.0903 175.889 20.7348 176.08 20.5161V20.393C176.08 20.3383 176.08 20.311 176.08 20.311C176.107 20.2836 176.121 20.2563 176.121 20.2289C176.121 19.9828 176.039 19.8051 175.875 19.6957C175.738 19.559 175.561 19.477 175.342 19.4496C175.15 19.395 174.945 19.3813 174.727 19.4086C174.508 19.4086 174.33 19.4086 174.193 19.4086C173.209 19.4086 172.17 19.6137 171.076 20.0239C169.982 20.434 168.971 20.9946 168.041 21.7055C167.139 22.3891 166.387 23.2094 165.785 24.1664C165.184 25.0961 164.883 26.0942 164.883 27.1606ZM183.791 28.227C183.791 28.1176 183.791 27.8989 183.791 27.5707C183.818 27.2153 183.832 26.9828 183.832 26.8735C184.707 24.8774 185.828 23.0317 187.195 21.3364C188.562 19.6411 190.107 18.1371 191.83 16.8246C191.885 16.8246 191.967 16.811 192.076 16.7836C192.213 16.7289 192.309 16.7016 192.363 16.7016C193.102 16.7016 193.703 16.8657 194.168 17.1938C194.66 17.4946 195.043 17.9047 195.316 18.4243C195.617 18.9164 195.822 19.477 195.932 20.1059C196.041 20.7075 196.096 21.2953 196.096 21.8696C196.096 22.936 195.85 24.0571 195.357 25.2328C194.865 26.3813 194.195 27.4477 193.348 28.4321C192.527 29.3891 191.584 30.1821 190.518 30.811C189.451 31.4125 188.344 31.7133 187.195 31.7133C186.047 31.7133 185.186 31.4125 184.611 30.811C184.064 30.1821 183.791 29.3207 183.791 28.227ZM186.99 27.7348C186.99 28.0356 187.113 28.2407 187.359 28.35C187.605 28.4594 187.852 28.5141 188.098 28.5141C188.781 28.5141 189.438 28.3364 190.066 27.9809C190.723 27.5981 191.297 27.1332 191.789 26.5864C192.309 26.0121 192.719 25.3832 193.02 24.6996C193.32 24.0161 193.471 23.3598 193.471 22.7309C193.471 22.4301 193.443 22.102 193.389 21.7465C193.361 21.3637 193.279 21.0356 193.143 20.7621C193.006 20.4614 192.787 20.2289 192.486 20.0649C192.213 19.9008 191.816 19.8735 191.297 19.9828C190.914 20.0649 190.477 20.4203 189.984 21.0493C189.492 21.6782 189.014 22.4164 188.549 23.2641C188.111 24.0844 187.742 24.9184 187.441 25.7661C187.141 26.5864 186.99 27.2426 186.99 27.7348ZM206.637 28.5141C206.637 27.6938 206.801 26.9418 207.129 26.2582C207.484 25.5473 207.867 24.8774 208.277 24.2485C208.688 23.6196 209.057 22.9907 209.385 22.3618C209.74 21.7328 209.918 21.0629 209.918 20.352C209.918 20.1879 209.904 19.9965 209.877 19.7778C209.877 19.5317 209.85 19.2993 209.795 19.0805C209.768 18.8618 209.686 18.684 209.549 18.5473C209.439 18.3832 209.289 18.3012 209.098 18.3012C209.07 18.3012 209.016 18.3149 208.934 18.3422C208.879 18.3422 208.852 18.3559 208.852 18.3832C208.469 18.9028 208.004 19.4907 207.457 20.1469C206.938 20.7758 206.377 21.4047 205.775 22.0336C205.174 22.6625 204.586 23.2641 204.012 23.8383C203.438 24.4125 202.918 24.8911 202.453 25.2739C202.125 25.5746 201.674 25.9848 201.1 26.5043C200.553 27.0239 199.992 27.5434 199.418 28.0629C198.871 28.5551 198.379 28.9926 197.941 29.3754C197.531 29.7582 197.299 29.9496 197.244 29.9496L195.357 28.35C195.604 28.35 195.85 28.2953 196.096 28.186C196.314 28.0766 196.533 27.9536 196.752 27.8168C198.393 26.7231 199.869 25.4653 201.182 24.0434C202.521 22.6215 203.834 21.0903 205.119 19.4496C205.174 19.3676 205.311 19.1352 205.529 18.7524C205.775 18.3422 206.035 17.8911 206.309 17.3989C206.582 16.8793 206.855 16.3735 207.129 15.8813C207.402 15.3618 207.607 14.9516 207.744 14.6508C207.908 14.2953 208.004 14.0082 208.031 13.7895C208.086 13.5707 208.127 13.4067 208.154 13.2973C208.209 13.1606 208.291 13.0649 208.4 13.0102C208.51 12.9555 208.742 12.9282 209.098 12.9282C209.152 12.9282 209.275 12.9418 209.467 12.9692C209.686 12.9965 209.822 13.0239 209.877 13.0512C210.232 13.7895 210.547 14.4457 210.82 15.02C211.094 15.5942 211.326 16.1411 211.518 16.6606C211.709 17.1528 211.846 17.6586 211.928 18.1782C212.037 18.6977 212.092 19.2719 212.092 19.9008C211.736 20.8032 211.34 21.7328 210.902 22.6899C210.465 23.6196 210.096 24.5082 209.795 25.3559C209.494 26.2036 209.303 26.9692 209.221 27.6528C209.166 28.3364 209.316 28.8832 209.672 29.2934C210.055 29.6762 210.684 29.8813 211.559 29.9086C212.461 29.936 213.732 29.7036 215.373 29.2114C215.811 29.4301 215.852 29.7036 215.496 30.0317C215.141 30.3325 214.594 30.6196 213.855 30.893C213.145 31.1664 212.352 31.3989 211.477 31.5903C210.629 31.7543 209.918 31.7953 209.344 31.7133C208.824 31.7133 208.387 31.6313 208.031 31.4672C207.703 31.2758 207.43 31.0297 207.211 30.7289C207.02 30.4282 206.869 30.0864 206.76 29.7036C206.678 29.3207 206.637 28.9243 206.637 28.5141ZM213.814 29.6215C213.814 29.2114 213.938 28.6371 214.184 27.8989C214.43 27.1332 214.744 26.3129 215.127 25.4379C215.537 24.5629 215.988 23.6743 216.48 22.7719C217 21.8696 217.52 21.0493 218.039 20.311C218.559 19.5727 219.051 18.9711 219.516 18.5063C219.98 18.0414 220.391 17.809 220.746 17.809C221.512 17.809 221.895 18.1782 221.895 18.9164C221.895 19.2446 221.826 19.518 221.689 19.7368C221.58 19.9555 221.443 20.1606 221.279 20.352C221.115 20.5434 220.938 20.7348 220.746 20.9262C220.555 21.0903 220.391 21.2953 220.254 21.5414C220.008 21.9516 219.707 22.5121 219.352 23.2231C218.996 23.934 218.641 24.6313 218.285 25.3149C217.957 25.9711 217.67 26.559 217.424 27.0786C217.178 27.5981 217.055 27.8852 217.055 27.9399V28.4731C218.121 28.2817 219.146 27.8305 220.131 27.1196C221.115 26.3813 222.045 25.52 222.92 24.5356C223.822 23.5512 224.67 22.5258 225.463 21.4594C226.283 20.3657 227.049 19.3676 227.76 18.4653C228.471 17.5356 229.141 16.77 229.77 16.1684C230.398 15.5668 230.986 15.2661 231.533 15.2661C231.533 16.2778 231.328 17.1938 230.918 18.0141C230.508 18.8344 230.057 19.6411 229.564 20.434C229.1 21.227 228.662 22.0473 228.252 22.895C227.842 23.7153 227.637 24.645 227.637 25.684C227.637 26.1215 227.896 26.518 228.416 26.8735C228.963 27.2016 229.578 27.4887 230.262 27.7348C230.973 27.9536 231.656 28.1313 232.312 28.268C232.969 28.4047 233.42 28.4868 233.666 28.5141V29.5805C233.037 29.6078 232.258 29.6215 231.328 29.6215C230.398 29.5942 229.469 29.4848 228.539 29.2934C227.609 29.102 226.762 28.7875 225.996 28.35C225.258 27.8852 224.766 27.2153 224.52 26.3403C223.809 26.8051 223.125 27.352 222.469 27.9809C221.812 28.6098 221.129 29.1977 220.418 29.7446C219.734 30.2914 219.01 30.7563 218.244 31.1391C217.479 31.5219 216.645 31.7133 215.742 31.7133C215.195 31.7133 214.73 31.4809 214.348 31.0161C213.992 30.5512 213.814 30.0864 213.814 29.6215Z" fill="#333333"/>
</svg>
